<svg xmlns="http://www.w3.org/2000/svg" width="128" height="128" viewBox="0 0 128 128" shape-rendering="crispEdges"><g transform="translate(0 0)"><rect x="9" y="4" width="14" height="7" fill="#7ed957"/><rect x="7" y="10" width="18" height="5" fill="#55b867"/><rect x="11" y="12" width="10" height="5" fill="#f7ead7"/><rect x="7" y="17" width="18" height="11" fill="#8ee6b8"/><rect x="4" y="21" width="5" height="8" fill="#7ed957"/><rect x="23" y="21" width="5" height="8" fill="#7ed957"/><rect x="12" y="28" width="4" height="3" fill="#8b5a3c"/><rect x="18" y="28" width="4" height="3" fill="#8b5a3c"/><rect x="14" y="18" width="4" height="7" fill="#f7ead7"/></g><g transform="translate(32 0)"><rect x="8" y="3" width="14" height="7" fill="#7ed957"/><rect x="6" y="9" width="18" height="5" fill="#55b867"/><rect x="10" y="11" width="10" height="5" fill="#f7ead7"/><rect x="6" y="16" width="18" height="11" fill="#8ee6b8"/><rect x="3" y="20" width="5" height="8" fill="#7ed957"/><rect x="22" y="20" width="5" height="8" fill="#7ed957"/><rect x="11" y="27" width="4" height="3" fill="#8b5a3c"/><rect x="17" y="27" width="4" height="3" fill="#8b5a3c"/><rect x="13" y="17" width="4" height="7" fill="#f7ead7"/></g><g transform="translate(64 0)"><rect x="9" y="4" width="14" height="7" fill="#7ed957"/><rect x="7" y="10" width="18" height="5" fill="#55b867"/><rect x="11" y="12" width="10" height="5" fill="#f7ead7"/><rect x="7" y="17" width="18" height="11" fill="#8ee6b8"/><rect x="4" y="21" width="5" height="8" fill="#7ed957"/><rect x="23" y="21" width="5" height="8" fill="#7ed957"/><rect x="12" y="28" width="4" height="3" fill="#8b5a3c"/><rect x="18" y="28" width="4" height="3" fill="#8b5a3c"/><rect x="14" y="18" width="4" height="7" fill="#f7ead7"/></g><g transform="translate(96 0)"><rect x="10" y="3" width="14" height="7" fill="#7ed957"/><rect x="8" y="9" width="18" height="5" fill="#55b867"/><rect x="12" y="11" width="10" height="5" fill="#f7ead7"/><rect x="8" y="16" width="18" height="11" fill="#8ee6b8"/><rect x="5" y="20" width="5" height="8" fill="#7ed957"/><rect x="24" y="20" width="5" height="8" fill="#7ed957"/><rect x="13" y="27" width="4" height="3" fill="#8b5a3c"/><rect x="19" y="27" width="4" height="3" fill="#8b5a3c"/><rect x="15" y="17" width="4" height="7" fill="#f7ead7"/></g><g transform="translate(0 32) scale(-1 1) translate(-32 0)"><rect x="9" y="4" width="14" height="7" fill="#7ed957"/><rect x="7" y="10" width="18" height="5" fill="#55b867"/><rect x="11" y="12" width="10" height="5" fill="#f7ead7"/><rect x="7" y="17" width="18" height="11" fill="#8ee6b8"/><rect x="4" y="21" width="5" height="8" fill="#7ed957"/><rect x="23" y="21" width="5" height="8" fill="#7ed957"/><rect x="12" y="28" width="4" height="3" fill="#8b5a3c"/><rect x="18" y="28" width="4" height="3" fill="#8b5a3c"/><rect x="14" y="18" width="4" height="7" fill="#f7ead7"/></g><g transform="translate(32 32) scale(-1 1) translate(-32 0)"><rect x="8" y="3" width="14" height="7" fill="#7ed957"/><rect x="6" y="9" width="18" height="5" fill="#55b867"/><rect x="10" y="11" width="10" height="5" fill="#f7ead7"/><rect x="6" y="16" width="18" height="11" fill="#8ee6b8"/><rect x="3" y="20" width="5" height="8" fill="#7ed957"/><rect x="22" y="20" width="5" height="8" fill="#7ed957"/><rect x="11" y="27" width="4" height="3" fill="#8b5a3c"/><rect x="17" y="27" width="4" height="3" fill="#8b5a3c"/><rect x="13" y="17" width="4" height="7" fill="#f7ead7"/></g><g transform="translate(64 32) scale(-1 1) translate(-32 0)"><rect x="9" y="4" width="14" height="7" fill="#7ed957"/><rect x="7" y="10" width="18" height="5" fill="#55b867"/><rect x="11" y="12" width="10" height="5" fill="#f7ead7"/><rect x="7" y="17" width="18" height="11" fill="#8ee6b8"/><rect x="4" y="21" width="5" height="8" fill="#7ed957"/><rect x="23" y="21" width="5" height="8" fill="#7ed957"/><rect x="12" y="28" width="4" height="3" fill="#8b5a3c"/><rect x="18" y="28" width="4" height="3" fill="#8b5a3c"/><rect x="14" y="18" width="4" height="7" fill="#f7ead7"/></g><g transform="translate(96 32) scale(-1 1) translate(-32 0)"><rect x="10" y="3" width="14" height="7" fill="#7ed957"/><rect x="8" y="9" width="18" height="5" fill="#55b867"/><rect x="12" y="11" width="10" height="5" fill="#f7ead7"/><rect x="8" y="16" width="18" height="11" fill="#8ee6b8"/><rect x="5" y="20" width="5" height="8" fill="#7ed957"/><rect x="24" y="20" width="5" height="8" fill="#7ed957"/><rect x="13" y="27" width="4" height="3" fill="#8b5a3c"/><rect x="19" y="27" width="4" height="3" fill="#8b5a3c"/><rect x="15" y="17" width="4" height="7" fill="#f7ead7"/></g><g transform="translate(0 64)"><rect x="9" y="4" width="14" height="7" fill="#7ed957"/><rect x="7" y="10" width="18" height="5" fill="#55b867"/><rect x="11" y="12" width="10" height="5" fill="#f7ead7"/><rect x="7" y="17" width="18" height="11" fill="#8ee6b8"/><rect x="4" y="21" width="5" height="8" fill="#7ed957"/><rect x="23" y="21" width="5" height="8" fill="#7ed957"/><rect x="12" y="28" width="4" height="3" fill="#8b5a3c"/><rect x="18" y="28" width="4" height="3" fill="#8b5a3c"/><rect x="14" y="18" width="4" height="7" fill="#f7ead7"/></g><g transform="translate(32 64)"><rect x="8" y="3" width="14" height="7" fill="#7ed957"/><rect x="6" y="9" width="18" height="5" fill="#55b867"/><rect x="10" y="11" width="10" height="5" fill="#f7ead7"/><rect x="6" y="16" width="18" height="11" fill="#8ee6b8"/><rect x="3" y="20" width="5" height="8" fill="#7ed957"/><rect x="22" y="20" width="5" height="8" fill="#7ed957"/><rect x="11" y="27" width="4" height="3" fill="#8b5a3c"/><rect x="17" y="27" width="4" height="3" fill="#8b5a3c"/><rect x="13" y="17" width="4" height="7" fill="#f7ead7"/></g><g transform="translate(64 64)"><rect x="9" y="4" width="14" height="7" fill="#7ed957"/><rect x="7" y="10" width="18" height="5" fill="#55b867"/><rect x="11" y="12" width="10" height="5" fill="#f7ead7"/><rect x="7" y="17" width="18" height="11" fill="#8ee6b8"/><rect x="4" y="21" width="5" height="8" fill="#7ed957"/><rect x="23" y="21" width="5" height="8" fill="#7ed957"/><rect x="12" y="28" width="4" height="3" fill="#8b5a3c"/><rect x="18" y="28" width="4" height="3" fill="#8b5a3c"/><rect x="14" y="18" width="4" height="7" fill="#f7ead7"/></g><g transform="translate(96 64)"><rect x="10" y="3" width="14" height="7" fill="#7ed957"/><rect x="8" y="9" width="18" height="5" fill="#55b867"/><rect x="12" y="11" width="10" height="5" fill="#f7ead7"/><rect x="8" y="16" width="18" height="11" fill="#8ee6b8"/><rect x="5" y="20" width="5" height="8" fill="#7ed957"/><rect x="24" y="20" width="5" height="8" fill="#7ed957"/><rect x="13" y="27" width="4" height="3" fill="#8b5a3c"/><rect x="19" y="27" width="4" height="3" fill="#8b5a3c"/><rect x="15" y="17" width="4" height="7" fill="#f7ead7"/></g><g transform="translate(0 96)"><rect x="9" y="5" width="14" height="7" fill="#7ed957"/><rect x="7" y="11" width="18" height="5" fill="#55b867"/><rect x="11" y="13" width="10" height="5" fill="#f7ead7"/><rect x="7" y="18" width="18" height="11" fill="#8ee6b8"/><rect x="4" y="22" width="5" height="8" fill="#7ed957"/><rect x="23" y="22" width="5" height="8" fill="#7ed957"/><rect x="12" y="29" width="4" height="3" fill="#8b5a3c"/><rect x="18" y="29" width="4" height="3" fill="#8b5a3c"/><rect x="14" y="19" width="4" height="7" fill="#f7ead7"/></g><g transform="translate(32 96)"><rect x="8" y="4" width="14" height="7" fill="#7ed957"/><rect x="6" y="10" width="18" height="5" fill="#55b867"/><rect x="10" y="12" width="10" height="5" fill="#f7ead7"/><rect x="6" y="17" width="18" height="11" fill="#8ee6b8"/><rect x="3" y="21" width="5" height="8" fill="#7ed957"/><rect x="22" y="21" width="5" height="8" fill="#7ed957"/><rect x="11" y="28" width="4" height="3" fill="#8b5a3c"/><rect x="17" y="28" width="4" height="3" fill="#8b5a3c"/><rect x="13" y="18" width="4" height="7" fill="#f7ead7"/></g><g transform="translate(64 96)"><rect x="9" y="5" width="14" height="7" fill="#7ed957"/><rect x="7" y="11" width="18" height="5" fill="#55b867"/><rect x="11" y="13" width="10" height="5" fill="#f7ead7"/><rect x="7" y="18" width="18" height="11" fill="#8ee6b8"/><rect x="4" y="22" width="5" height="8" fill="#7ed957"/><rect x="23" y="22" width="5" height="8" fill="#7ed957"/><rect x="12" y="29" width="4" height="3" fill="#8b5a3c"/><rect x="18" y="29" width="4" height="3" fill="#8b5a3c"/><rect x="14" y="19" width="4" height="7" fill="#f7ead7"/></g><g transform="translate(96 96)"><rect x="10" y="4" width="14" height="7" fill="#7ed957"/><rect x="8" y="10" width="18" height="5" fill="#55b867"/><rect x="12" y="12" width="10" height="5" fill="#f7ead7"/><rect x="8" y="17" width="18" height="11" fill="#8ee6b8"/><rect x="5" y="21" width="5" height="8" fill="#7ed957"/><rect x="24" y="21" width="5" height="8" fill="#7ed957"/><rect x="13" y="28" width="4" height="3" fill="#8b5a3c"/><rect x="19" y="28" width="4" height="3" fill="#8b5a3c"/><rect x="15" y="18" width="4" height="7" fill="#f7ead7"/></g></svg>